<svg class="chat-mark-product-colours" data-name="Teamwork Chat" xmlns="http://www.w3.org/2000/svg" viewBox="0 0 165.221 138.952">
  <title>chat-mark-product-colours</title>
  <path class="shape-front" d="M130.57,34.8c-1.2-10.6-8.84-17.61-19.2-19.3L19.2.072C8.7-.928,0,8.712,0,19.362l3.84,84.9c0,10.66,8.52,21.39,19.2,19.3l47.61-10-3.44,19.61,27.39-24.63,20.61-4.32c10.79-2.89,19.79-8.93,19.2-19.29Z" transform="translate(0 0)" fill="#FF3454"/>
  <path class="shape-back" d="M148.68,30.942l-11.44.28c.19.91.34,1.83.45,2.78v.26l3.84,50.17v.14c.71,12.54-8.21,22.24-24.49,26.61l-.19.05h-.2l-15.3,3.2,27.28,24.52-3.86-22.02,16.77,2.76c8.76.91,15.18-7.38,16.46-16.58l7.14-55.62C166.11,38.352,158.21,30.942,148.68,30.942Z" transform="translate(0 0)" fill="#fd7a8e"/>
  <path class="shape-tw" d="M28.436,34.145a6.772,6.772,0,0,0-2.394,4.936c-.3,3.934.141,6.725-.673,7.3-1.251.928-3.692-.558-5.784,1.345a4.5,4.5,0,0,0-1.5,3.625,5.225,5.225,0,0,0,2.015,4.16c2.529,1.93,4.035.874,5.38,2.327a3.43,3.43,0,0,1,.632,2.334c-.155,6.725-.108,22.193,0,23.262.175,2.018.531,10.626,4.58,13.45s8.01,2.172,12.576,1.345c4.694-.82,15.972-2.744,15.972-2.744a13.809,13.809,0,0,1-6.34-4.607,11.009,11.009,0,0,1-1.54-4.613c-.269-2.461-1.015-24.667-1-25.1,0-.551.04-1.829,2.2-1.782a36.638,36.638,0,0,0,3.692.047c1.089-.134,2.219-1.627,2.219-3.4,0-3.813-4.035-4.607-4.627-4.647s-2.966-.37-3.6-1.493c-.942-1.681-.511-4.667-.673-6.234a10.168,10.168,0,0,0-2.145-5.333,7.727,7.727,0,0,0-2.979-2.354,33.679,33.679,0,0,0-11.17-3.026A6.534,6.534,0,0,0,28.436,34.145ZM34.03,18.022c2.808-1.621,6.787.014,8.887,3.652s1.527,7.9-1.281,9.522-6.787-.014-8.887-3.652S31.222,19.643,34.03,18.022Zm32,6.349c2.525-1.458,6.1.012,7.992,3.283s1.373,7.1-1.152,8.563-6.1-.012-7.992-3.283-1.378-7.106,1.148-8.563Zm47.327,37.8c-.955-7.936-1.97-13.84-1.97-13.84a5.669,5.669,0,0,0-3.719-4.512,19.254,19.254,0,0,0-4.338-.787c-3.154-.343-3.1,2.8-2.986,4.149.276,3.221,3.436,34.762,3.363,35.643a.915.915,0,0,1-1.533.491c-.4-.639-3.732-31.87-3.88-32.758a6.49,6.49,0,0,0-4.149-5.38A30.135,30.135,0,0,0,87.877,44a4.081,4.081,0,0,0-3.47,1.406,5.165,5.165,0,0,0-.834,3.167c.182,2.455,2.354,30.518,2.8,37.048.047.673-1.345,1.48-1.789.5-.518-1.17-3.813-35.474-4.035-37.156-.168-1.251-.37-6.6-3.443-8.548-2.34-1.486-9.213-3.114-11.681-2.69-3.484.3-5.481,2.784-5.131,10.888.306,7.44,1.337,26.377,1.854,30.689.242,2.018.9,7.122,2.549,9.307s3.423,3.6,7.512,3.948,14.956-2.018,17.579-2.273c0,0,18.379-3.235,19.738-3.531,1.237-.269,5.562-.941,5.683-7.8.04-3.41-1.056-10.163-1.856-16.786Zm-26.5-29.759c2.245-1.3,5.426.01,7.1,2.918s1.22,6.316-1.025,7.612-5.426-.01-7.1-2.918-1.22-6.318,1.025-7.614Zm14.417-.943c2.245-1.3,5.426.01,7.1,2.918s1.22,6.316-1.025,7.612-5.426-.01-7.1-2.918-1.22-6.318,1.025-7.614Z" transform="translate(0 0)" fill="#fff"/>
</svg>
